<svg width="275" height="151" viewBox="0 0 275 151" fill="none" xmlns="http://www.w3.org/2000/svg">
<g filter="url(#filter0_d_150_1522)">
<path d="M27.1036 111.856V134H24.1916V117.488L16.8316 134H14.7836L7.39163 117.456V134H4.47963V111.856H7.61563L15.8076 130.16L23.9996 111.856H27.1036ZM48.0421 124.56C48.0421 125.115 48.0101 125.701 47.9461 126.32H33.9301C34.0368 128.048 34.6235 129.403 35.6901 130.384C36.7781 131.344 38.0901 131.824 39.6261 131.824C40.8848 131.824 41.9301 131.536 42.7621 130.96C43.6155 130.363 44.2128 129.573 44.5541 128.592H47.6901C47.2208 130.277 46.2821 131.653 44.8741 132.72C43.4661 133.765 41.7168 134.288 39.6261 134.288C37.9621 134.288 36.4688 133.915 35.1461 133.168C33.8448 132.421 32.8208 131.365 32.0741 130C31.3275 128.613 30.9541 127.013 30.9541 125.2C30.9541 123.387 31.3168 121.797 32.0421 120.432C32.7675 119.067 33.7808 118.021 35.0821 117.296C36.4048 116.549 37.9195 116.176 39.6261 116.176C41.2901 116.176 42.7621 116.539 44.0421 117.264C45.3221 117.989 46.3035 118.992 46.9861 120.272C47.6901 121.531 48.0421 122.96 48.0421 124.56ZM45.0341 123.952C45.0341 122.843 44.7888 121.893 44.2981 121.104C43.8075 120.293 43.1355 119.685 42.2821 119.28C41.4501 118.853 40.5221 118.64 39.4981 118.64C38.0261 118.64 36.7675 119.109 35.7221 120.048C34.6981 120.987 34.1115 122.288 33.9621 123.952H45.0341ZM61.0379 134L56.8779 127.472L52.8779 134H49.8379L55.5019 125.296L49.8379 116.464H53.1339L57.2939 122.96L61.2619 116.464H64.3019L58.6699 125.136L64.3339 134H61.0379ZM68.7024 113.616C68.1477 113.616 67.6784 113.424 67.2944 113.04C66.9104 112.656 66.7184 112.187 66.7184 111.632C66.7184 111.077 66.9104 110.608 67.2944 110.224C67.6784 109.84 68.1477 109.648 68.7024 109.648C69.2357 109.648 69.6837 109.84 70.0464 110.224C70.4304 110.608 70.6224 111.077 70.6224 111.632C70.6224 112.187 70.4304 112.656 70.0464 113.04C69.6837 113.424 69.2357 113.616 68.7024 113.616ZM70.1104 116.464V134H67.1984V116.464H70.1104ZM73.9854 125.2C73.9854 123.387 74.348 121.808 75.0734 120.464C75.7987 119.099 76.8014 118.043 78.0814 117.296C79.3827 116.549 80.8654 116.176 82.5294 116.176C84.684 116.176 86.4547 116.699 87.8414 117.744C89.2494 118.789 90.1774 120.24 90.6254 122.096H87.4894C87.1907 121.029 86.604 120.187 85.7294 119.568C84.876 118.949 83.8094 118.64 82.5294 118.64C80.8654 118.64 79.5214 119.216 78.4974 120.368C77.4734 121.499 76.9614 123.109 76.9614 125.2C76.9614 127.312 77.4734 128.944 78.4974 130.096C79.5214 131.248 80.8654 131.824 82.5294 131.824C83.8094 131.824 84.876 131.525 85.7294 130.928C86.5827 130.331 87.1694 129.477 87.4894 128.368H90.6254C90.156 130.16 89.2174 131.6 87.8094 132.688C86.4014 133.755 84.6414 134.288 82.5294 134.288C80.8654 134.288 79.3827 133.915 78.0814 133.168C76.8014 132.421 75.7987 131.365 75.0734 130C74.348 128.635 73.9854 127.035 73.9854 125.2ZM93.4229 125.168C93.4229 123.376 93.7855 121.808 94.5109 120.464C95.2362 119.099 96.2282 118.043 97.4869 117.296C98.7669 116.549 100.186 116.176 101.743 116.176C103.279 116.176 104.612 116.507 105.743 117.168C106.874 117.829 107.716 118.661 108.271 119.664V116.464H111.215V134H108.271V130.736C107.695 131.76 106.831 132.613 105.679 133.296C104.548 133.957 103.226 134.288 101.711 134.288C100.154 134.288 98.7455 133.904 97.4869 133.136C96.2282 132.368 95.2362 131.291 94.5109 129.904C93.7855 128.517 93.4229 126.939 93.4229 125.168ZM108.271 125.2C108.271 123.877 108.004 122.725 107.471 121.744C106.938 120.763 106.212 120.016 105.295 119.504C104.399 118.971 103.407 118.704 102.319 118.704C101.231 118.704 100.239 118.96 99.3429 119.472C98.4469 119.984 97.7322 120.731 97.1989 121.712C96.6655 122.693 96.3989 123.845 96.3989 125.168C96.3989 126.512 96.6655 127.685 97.1989 128.688C97.7322 129.669 98.4469 130.427 99.3429 130.96C100.239 131.472 101.231 131.728 102.319 131.728C103.407 131.728 104.399 131.472 105.295 130.96C106.212 130.427 106.938 129.669 107.471 128.688C108.004 127.685 108.271 126.523 108.271 125.2ZM124.68 116.144C126.813 116.144 128.541 116.795 129.864 118.096C131.187 119.376 131.848 121.232 131.848 123.664V134H128.968V124.08C128.968 122.331 128.531 120.997 127.656 120.08C126.781 119.141 125.587 118.672 124.072 118.672C122.536 118.672 121.309 119.152 120.392 120.112C119.496 121.072 119.048 122.469 119.048 124.304V134H116.136V116.464H119.048V118.96C119.624 118.064 120.403 117.371 121.384 116.88C122.387 116.389 123.485 116.144 124.68 116.144Z" fill="black"/>
<path d="M159.526 118.384C159.014 117.445 158.31 116.731 157.414 116.24C156.518 115.749 155.472 115.504 154.278 115.504C152.955 115.504 151.782 115.803 150.758 116.4C149.734 116.997 148.934 117.851 148.358 118.96C147.782 120.069 147.494 121.349 147.494 122.8C147.494 124.293 147.782 125.595 148.358 126.704C148.955 127.813 149.776 128.667 150.822 129.264C151.867 129.861 153.083 130.16 154.47 130.16C156.176 130.16 157.574 129.712 158.662 128.816C159.75 127.899 160.464 126.629 160.806 125.008H153.126V121.584H165.222V125.488C164.923 127.045 164.283 128.485 163.302 129.808C162.32 131.131 161.051 132.197 159.494 133.008C157.958 133.797 156.23 134.192 154.31 134.192C152.155 134.192 150.203 133.712 148.454 132.752C146.726 131.771 145.36 130.416 144.358 128.688C143.376 126.96 142.886 124.997 142.886 122.8C142.886 120.603 143.376 118.64 144.358 116.912C145.36 115.163 146.726 113.808 148.454 112.848C150.203 111.867 152.144 111.376 154.278 111.376C156.795 111.376 158.982 111.995 160.838 113.232C162.694 114.448 163.974 116.165 164.678 118.384H159.526ZM173.016 119.024C173.592 118.085 174.339 117.349 175.256 116.816C176.195 116.283 177.261 116.016 178.456 116.016V120.72H177.272C175.864 120.72 174.797 121.051 174.072 121.712C173.368 122.373 173.016 123.525 173.016 125.168V134H168.536V116.272H173.016V119.024ZM189.346 134.288C187.639 134.288 186.103 133.915 184.738 133.168C183.372 132.4 182.295 131.323 181.506 129.936C180.738 128.549 180.354 126.949 180.354 125.136C180.354 123.323 180.748 121.723 181.538 120.336C182.348 118.949 183.447 117.883 184.834 117.136C186.22 116.368 187.767 115.984 189.474 115.984C191.18 115.984 192.727 116.368 194.114 117.136C195.5 117.883 196.588 118.949 197.378 120.336C198.188 121.723 198.594 123.323 198.594 125.136C198.594 126.949 198.178 128.549 197.346 129.936C196.535 131.323 195.426 132.4 194.018 133.168C192.631 133.915 191.074 134.288 189.346 134.288ZM189.346 130.384C190.156 130.384 190.914 130.192 191.618 129.808C192.343 129.403 192.919 128.805 193.346 128.016C193.772 127.227 193.986 126.267 193.986 125.136C193.986 123.451 193.538 122.16 192.642 121.264C191.767 120.347 190.69 119.888 189.41 119.888C188.13 119.888 187.052 120.347 186.178 121.264C185.324 122.16 184.898 123.451 184.898 125.136C184.898 126.821 185.314 128.123 186.146 129.04C186.999 129.936 188.066 130.384 189.346 130.384ZM200.728 125.136C200.728 123.301 201.101 121.701 201.848 120.336C202.595 118.949 203.629 117.883 204.952 117.136C206.275 116.368 207.789 115.984 209.496 115.984C211.693 115.984 213.507 116.539 214.936 117.648C216.387 118.736 217.357 120.272 217.848 122.256H213.016C212.76 121.488 212.323 120.891 211.704 120.464C211.107 120.016 210.36 119.792 209.464 119.792C208.184 119.792 207.171 120.261 206.424 121.2C205.677 122.117 205.304 123.429 205.304 125.136C205.304 126.821 205.677 128.133 206.424 129.072C207.171 129.989 208.184 130.448 209.464 130.448C211.277 130.448 212.461 129.637 213.016 128.016H217.848C217.357 129.936 216.387 131.461 214.936 132.592C213.485 133.723 211.672 134.288 209.496 134.288C207.789 134.288 206.275 133.915 204.952 133.168C203.629 132.4 202.595 131.333 201.848 129.968C201.101 128.581 200.728 126.971 200.728 125.136ZM237.61 124.752C237.61 125.392 237.567 125.968 237.482 126.48H224.522C224.629 127.76 225.077 128.763 225.866 129.488C226.655 130.213 227.626 130.576 228.778 130.576C230.442 130.576 231.626 129.861 232.33 128.432H237.162C236.65 130.139 235.669 131.547 234.218 132.656C232.767 133.744 230.986 134.288 228.874 134.288C227.167 134.288 225.631 133.915 224.266 133.168C222.922 132.4 221.866 131.323 221.098 129.936C220.351 128.549 219.978 126.949 219.978 125.136C219.978 123.301 220.351 121.691 221.098 120.304C221.845 118.917 222.89 117.851 224.234 117.104C225.578 116.357 227.125 115.984 228.874 115.984C230.559 115.984 232.063 116.347 233.386 117.072C234.73 117.797 235.765 118.832 236.49 120.176C237.237 121.499 237.61 123.024 237.61 124.752ZM232.97 123.472C232.949 122.32 232.533 121.403 231.722 120.72C230.911 120.016 229.919 119.664 228.746 119.664C227.637 119.664 226.698 120.005 225.93 120.688C225.183 121.349 224.725 122.277 224.554 123.472H232.97ZM245.36 119.024C245.936 118.085 246.683 117.349 247.6 116.816C248.539 116.283 249.605 116.016 250.8 116.016V120.72H249.616C248.208 120.72 247.141 121.051 246.416 121.712C245.712 122.373 245.36 123.525 245.36 125.168V134H240.88V116.272H245.36V119.024ZM270.777 116.272L259.801 142.384H255.033L258.873 133.552L251.769 116.272H256.793L261.369 128.656L266.009 116.272H270.777Z" fill="#FECC4C"/>
<path d="M143.801 41.1309H141.511C142.767 37.0261 141.594 33.018 139.786 30.6823C139.566 30.7929 139.331 30.9034 139.097 31.014C137.096 31.9538 135.04 32.4099 132.861 31.788C131.136 31.3043 129.715 30.2677 128.459 29.0376C127.77 28.3604 127.149 27.6279 126.486 26.923C131.95 21.1459 138.352 23.7995 140.449 28.5124C139.4 27.8076 138.269 26.9368 137.055 26.232C135.799 25.4995 134.406 25.1539 132.902 25.4304C137.206 26.3149 140.545 28.5401 142.56 32.479C144.022 35.34 144.436 38.2424 143.801 41.1309Z" fill="black"/>
<path d="M120.168 11.955C120.595 11.9827 120.871 12.2591 121.147 12.5355C123.341 14.733 125.521 16.9167 127.714 19.1143C128.128 19.5289 128.542 19.9712 127.99 20.5517C127.411 21.1598 126.969 20.7037 126.569 20.2891C124.348 18.0639 122.141 15.8387 119.919 13.6274C119.602 13.3095 119.312 12.9778 119.492 12.4802C119.588 12.1762 119.878 12.0518 120.168 11.955Z" fill="black"/>
<path d="M177.989 11.955C178.307 11.9827 178.583 12.1347 178.735 12.4249C178.9 12.7566 178.845 13.116 178.569 13.3924C176.168 15.7973 173.754 18.2021 171.353 20.5931C170.967 20.9801 170.567 20.911 170.222 20.5378C169.836 20.1232 169.974 19.7086 170.291 19.3769C170.912 18.7135 171.574 18.0777 172.222 17.4281C173.795 15.8525 175.368 14.277 176.941 12.7014C177.231 12.3835 177.52 12.0518 177.989 11.955Z" fill="black"/>
<path d="M149.955 5.91536C149.955 7.49095 149.955 9.05271 149.955 10.6283C149.955 11.2502 149.83 11.8307 149.072 11.8031C148.409 11.7754 148.271 11.2364 148.271 10.6698C148.271 7.47713 148.271 4.29831 148.271 1.10567C148.271 0.539016 148.409 0 149.085 0C149.858 0 149.941 0.580481 149.941 1.20242C149.955 2.77801 149.955 4.33978 149.955 5.91536Z" fill="black"/>
<path d="M137.468 14.1527C136.916 14.125 136.668 13.7933 136.488 13.3649C135.923 11.9966 135.371 10.6283 134.805 9.26007C134.584 8.73487 134.46 8.20968 135.095 7.91944C135.73 7.6292 136.074 8.01619 136.295 8.55521C136.888 10.0064 137.482 11.4576 138.075 12.895C138.379 13.6137 138.089 13.973 137.468 14.1527Z" fill="black"/>
<path d="M160.812 14.1528C160.274 14.0284 159.86 13.6967 160.067 13.1577C160.702 11.4991 161.405 9.85446 162.123 8.22359C162.302 7.82278 162.716 7.72604 163.13 7.91953C163.558 8.11302 163.709 8.50001 163.544 8.90082C162.895 10.5179 162.219 12.1211 161.543 13.7243C161.419 14.0284 161.116 14.0975 160.812 14.1528Z" fill="black"/>
<path d="M121.575 30.1849C121.52 30.6548 121.092 30.945 120.513 30.7239C118.899 30.1019 117.312 29.4247 115.739 28.7198C115.367 28.554 115.118 28.1808 115.339 27.7524C115.532 27.3516 115.85 27.0475 116.374 27.2686C117.974 27.932 119.561 28.5816 121.161 29.2589C121.465 29.3694 121.603 29.632 121.575 30.1849Z" fill="black"/>
<path d="M177.686 30.7793C177.079 30.7517 176.789 30.5997 176.679 30.2127C176.568 29.7842 176.679 29.4111 177.092 29.2314C178.679 28.5542 180.279 27.9046 181.88 27.2412C182.349 27.0477 182.625 27.3241 182.859 27.642C183.108 27.9737 183.011 28.416 182.694 28.5542C180.969 29.3696 179.231 30.1021 177.686 30.7793Z" fill="black"/>
<path d="M171.05 47.6687C170.705 50.6955 170.374 53.6394 170.029 56.5694C169.809 58.4352 169.56 60.2872 169.353 62.1531C169.022 65.0969 167.587 66.4514 164.662 66.4514C154.246 66.4514 143.843 66.4652 133.427 66.4514C130.847 66.4514 129.302 65.2628 128.97 62.8165C128.35 58.1588 127.825 53.4735 127.287 48.802C127.246 48.4565 127.287 48.111 127.287 47.6825H171.05V47.6687ZM142.215 57.1084C142.215 55.5881 142.243 54.054 142.215 52.5337C142.174 50.6955 140.78 49.3411 138.973 49.3272C137.124 49.3134 135.634 50.5849 135.607 52.3955C135.551 55.4914 135.551 58.5873 135.607 61.6831C135.648 63.5213 137.111 64.8481 138.904 64.8481C140.767 64.8481 142.188 63.4522 142.215 61.5588C142.243 60.0661 142.215 58.5873 142.215 57.1084ZM152.48 56.984C152.48 55.5881 152.508 54.1922 152.48 52.8101C152.439 50.7508 151.1 49.3411 149.224 49.3272C147.527 49.3134 145.802 50.9996 145.775 52.8101C145.733 55.6849 145.733 58.5596 145.775 61.4206C145.802 63.4246 147.237 64.8481 149.114 64.8343C151.004 64.8343 152.411 63.4384 152.466 61.4206C152.508 59.9555 152.466 58.4629 152.48 56.984ZM162.648 52.5199C162.621 50.6126 161.172 49.2996 159.268 49.3272C157.461 49.3549 156.067 50.6955 156.026 52.5337C156.012 53.1004 156.012 53.6808 156.012 54.2475C156.012 54.4963 156.012 54.745 156.012 54.9938C156.012 55.2426 156.012 55.4914 156.012 55.7401C156.012 56.1548 156.012 56.5694 156.012 56.984C156.012 57.219 156.012 57.4539 156.012 57.6889C156.012 58.5458 155.998 59.3889 156.012 60.2458C156.012 60.3978 156.012 60.5637 156.012 60.7157C156.012 61.0059 156.012 61.2823 156.026 61.5726C156.067 63.4661 157.488 64.862 159.351 64.862C161.144 64.862 162.621 63.5075 162.648 61.697C162.69 58.6149 162.69 55.5743 162.648 52.5199Z" fill="black"/>
<path d="M124.679 45.9269C124.679 44.8074 124.679 43.7708 124.679 42.7204C125.051 42.3887 125.507 42.5269 125.921 42.5269C132.502 42.5131 139.083 42.5407 145.65 42.5269C146.326 42.5269 146.809 42.6237 147.278 43.2594C148.175 44.4757 149.789 44.5033 150.92 43.3423C151.527 42.7204 152.134 42.5131 152.976 42.5131C159.419 42.5407 165.862 42.5269 172.305 42.5269C172.691 42.5269 173.078 42.5269 173.519 42.5269C173.519 43.6879 173.519 44.7521 173.519 45.913C157.28 45.9269 141.056 45.9269 124.679 45.9269Z" fill="black"/>
<path d="M129.688 40.8961C129.536 37.7035 132.323 33.9995 135.717 32.8385C140.504 31.1938 145.623 33.4743 147.596 38.1319C148.189 39.5278 147.278 40.9514 145.802 40.9514C142.119 40.9652 138.421 40.9514 134.696 40.9514C134.724 39.5002 135.193 38.2978 135.813 37.1368C136.103 36.6116 136.365 36.0588 135.634 35.7133C134.93 35.3677 134.613 35.9067 134.323 36.4181C133.565 37.8002 133.192 39.3067 132.93 40.8961C131.826 40.8961 130.75 40.8961 129.688 40.8961Z" fill="black"/>
<path d="M168.676 32.3272C168.676 33.5019 168.676 34.5661 168.676 35.7686C167.379 35.7686 166.124 35.7686 164.882 35.7686C164.275 35.7686 163.668 35.8515 163.654 36.5978C163.64 37.3856 164.289 37.4133 164.868 37.4133C166.082 37.4133 167.297 37.4133 168.649 37.4133C168.814 38.5742 168.745 39.6799 168.69 40.91C163.627 40.91 158.618 40.91 153.293 40.91C156.204 38.0352 158.936 35.3263 161.668 32.6174C161.861 32.4239 162.081 32.3272 162.357 32.3272C164.441 32.3272 166.524 32.3272 168.676 32.3272Z" fill="black"/>
<path d="M148.271 35.6996C147.747 35.0915 147.471 34.7045 147.14 34.3728C146.381 33.6127 145.098 32.9769 144.933 32.12C144.588 30.3233 144.822 28.4022 144.822 26.3981C147.25 26.3981 149.582 26.3981 151.914 26.3981C152.383 26.3981 152.852 26.3981 153.362 26.3981C153.362 27.877 153.362 29.2038 153.362 30.6826C152.272 30.6826 151.251 30.6688 150.217 30.6826C148.809 30.7103 148.271 31.2769 148.271 32.6867C148.271 33.5989 148.271 34.4972 148.271 35.6996Z" fill="black"/>
<path d="M149.044 42.5271C148.726 42.4856 148.52 42.2783 148.368 41.9881C148.147 41.532 148.451 41.2418 148.713 40.9653C149.913 39.7076 151.127 38.4637 152.355 37.2337C155.708 33.889 159.074 30.5444 162.44 27.2135C162.689 26.9647 162.951 26.7298 163.241 26.5501C163.585 26.3428 163.917 26.481 164.165 26.7574C164.441 27.0477 164.441 27.3932 164.193 27.6972C164.027 27.9046 163.834 28.0842 163.654 28.2639C159.143 32.7972 154.618 37.3166 150.106 41.8499C149.816 42.1401 149.568 42.5547 149.044 42.5271Z" fill="black"/>
<path d="M132.639 25.0572C136.558 25.7068 138.172 27.4068 137.937 30.5579C134.419 30.475 132.391 28.4019 132.639 25.0572Z" fill="black"/>
<path d="M149.968 32.3826C151.596 32.3826 153.141 32.3826 154.618 32.3826C153.086 33.82 151.513 35.3127 149.982 36.75C149.678 35.5891 150.01 34.0135 149.968 32.3826Z" fill="black"/>
<path d="M162.648 61.6689C162.62 63.4795 161.144 64.8339 159.35 64.8339C157.488 64.8339 156.067 63.4518 156.025 61.5445C156.025 61.2543 156.011 60.9779 156.011 60.6877C156.011 60.5356 156.011 60.3698 156.011 60.2177C156.011 59.3608 156.011 58.5178 156.011 57.6609C156.011 57.4259 156.011 57.191 156.011 56.956C156.011 56.5414 156.011 56.1267 156.011 55.7121C156.011 55.4633 156.011 55.2146 156.011 54.9658C156.011 54.717 156.011 54.4682 156.011 54.2195C156.011 53.6528 156.011 53.0723 156.025 52.5057C156.067 50.6675 157.46 49.313 159.267 49.2992C161.171 49.2716 162.62 50.5984 162.648 52.4918C162.689 55.5739 162.689 58.6145 162.648 61.6689ZM161.047 58.9739C161.047 58.5454 161.047 58.1308 161.047 57.7023C161.047 57.495 161.047 57.2739 161.047 57.0666C161.047 56.1682 161.047 55.2699 161.047 54.3715C161.047 53.8739 161.047 53.3764 161.047 52.8926C161.047 51.7732 160.578 51.0406 159.392 50.9715C158.316 50.9024 157.626 51.6349 157.612 52.9065C157.584 55.6983 157.612 58.4763 157.598 61.2681C157.598 62.4014 158.164 63.0925 159.267 63.2307C160.261 63.3413 161.006 62.4844 161.033 61.2681C161.047 60.4942 161.047 59.734 161.047 58.9739Z" fill="black"/>
<path d="M142.215 57.1082C142.215 58.587 142.243 60.0659 142.215 61.5585C142.174 63.452 140.753 64.8479 138.904 64.8479C137.111 64.8479 135.634 63.5211 135.607 61.6829C135.551 58.587 135.551 55.4911 135.607 52.3953C135.634 50.5847 137.124 49.2994 138.973 49.327C140.78 49.3408 142.174 50.6953 142.215 52.5335C142.243 54.0538 142.215 55.5741 142.215 57.1082ZM140.642 58.9878C140.642 58.3797 140.642 57.7854 140.642 57.1773C140.642 56.7488 140.642 56.3204 140.642 55.8781C140.642 54.8692 140.642 53.8603 140.642 52.8652C140.642 51.7457 140.132 51.027 138.959 50.9579C137.925 50.8888 137.221 51.5936 137.207 52.7684C137.18 55.6017 137.193 58.435 137.193 61.2545C137.193 62.3878 137.745 63.0926 138.863 63.2032C139.856 63.3 140.601 62.4292 140.629 61.2268C140.642 60.4943 140.642 59.7342 140.642 58.9878Z" fill="black"/>
<path d="M152.465 61.4341C152.41 63.452 151.003 64.8479 149.113 64.8479C147.236 64.8479 145.801 63.4382 145.774 61.4341C145.732 58.5594 145.732 55.6846 145.774 52.8237C145.801 51.0131 147.512 49.3408 149.223 49.3408C151.099 49.3546 152.424 50.7644 152.479 52.8237C152.507 54.2196 152.479 55.6155 152.479 56.9976C152.465 58.4626 152.507 59.9553 152.465 61.4341ZM150.837 57.0944C150.837 56.6659 150.837 56.2374 150.837 55.809C150.837 54.8415 150.837 53.8741 150.823 52.9066C150.81 51.6351 150.147 50.9302 149.071 50.944C148.05 50.9717 147.416 51.6627 147.402 52.8513C147.388 55.6432 147.388 58.4212 147.402 61.213C147.416 62.4292 148.161 63.2447 149.154 63.217C150.092 63.1894 150.81 62.3878 150.837 61.2683C150.851 60.2732 150.851 59.2781 150.851 58.2968C150.837 57.896 150.837 57.4952 150.837 57.0944Z" fill="black"/>
<path d="M173.836 72.6428C158.398 72.6566 142.973 72.6981 127.535 72.6566C125.865 72.6566 124.099 72.5184 122.747 71.2192C120.954 69.6575 120.568 67.4185 120.002 65.3177C116.663 53.0862 113.421 40.8132 110.027 28.5955C108.164 21.8924 104.481 19.1973 97.5409 19.0729C95.8163 19.0452 94.1055 19.0452 92.3809 19.0314C89.9665 19.0038 88.3385 21.4915 89.2629 23.7305C89.7182 24.85 90.6287 24.7256 91.5255 24.7256C93.8986 24.7533 96.2716 24.7671 98.6446 24.8224C101.956 24.8915 103.887 26.6329 104.715 29.7979C106.978 38.3393 109.268 46.8806 111.544 55.4219C112.648 59.5406 113.724 63.6592 114.814 67.7778C116.773 75.1859 120.526 78.1988 128.156 78.2126C144.049 78.2541 159.943 78.2265 175.809 78.2265C176.748 75.02 176.209 73.555 173.836 72.6428Z" fill="#FECC4C"/>
<path d="M158.812 85.3029C158.757 88.4541 161.102 90.9004 164.275 90.9971C167.393 91.0939 170.07 88.6614 170.111 85.6761C170.167 82.3729 167.78 79.8851 164.524 79.8436C161.378 79.8022 158.867 82.1932 158.812 85.3029Z" fill="#FECC4C"/>
<path d="M125.492 85.5655C125.465 88.6614 127.935 91.0248 131.149 90.9971C134.226 90.9695 136.64 88.6614 136.695 85.6623C136.764 82.4005 134.281 79.7745 131.149 79.7884C127.838 79.8022 125.506 82.1794 125.492 85.5655Z" fill="#FECC4C"/>
<path d="M161.453 86.134C161.061 84.47 162.089 82.8026 163.75 82.4097C165.411 82.0167 167.076 83.0472 167.468 84.7111C167.86 86.3751 166.832 88.0426 165.171 88.4355C163.51 88.8284 161.845 87.798 161.453 86.134Z" fill="#FECC4C"/>
<path d="M128.036 85.9163C127.762 84.2286 128.906 82.6383 130.591 82.3644C132.276 82.0905 133.863 83.2367 134.137 84.9244C134.41 86.6122 133.266 88.2024 131.581 88.4763C129.896 88.7502 128.309 87.6041 128.036 85.9163Z" fill="#FECC4C"/>
</g>
<defs>
<filter id="filter0_d_150_1522" x="0.479492" y="0" width="274.298" height="150.384" filterUnits="userSpaceOnUse" color-interpolation-filters="sRGB">
<feFlood flood-opacity="0" result="BackgroundImageFix"/>
<feColorMatrix in="SourceAlpha" type="matrix" values="0 0 0 0 0 0 0 0 0 0 0 0 0 0 0 0 0 0 127 0" result="hardAlpha"/>
<feOffset dy="4"/>
<feGaussianBlur stdDeviation="2"/>
<feComposite in2="hardAlpha" operator="out"/>
<feColorMatrix type="matrix" values="0 0 0 0 0 0 0 0 0 0 0 0 0 0 0 0 0 0 0.25 0"/>
<feBlend mode="normal" in2="BackgroundImageFix" result="effect1_dropShadow_150_1522"/>
<feBlend mode="normal" in="SourceGraphic" in2="effect1_dropShadow_150_1522" result="shape"/>
</filter>
</defs>
</svg>
